{
	"asset":{
		"generator":"Khronos glTF Blender I/O v3.6.28",
		"version":"2.0"
	},
	"scene":0,
	"scenes":[
		{
			"name":"Scene",
			"nodes":[
				0
			]
		}
	],
	"nodes":[
		{
			"mesh":0,
			"name":"Mesh_0"
		}
	],
	"materials":[
		{
			"name":"Material_0",
			"pbrMetallicRoughness":{
				"metallicFactor":0.5,
				"roughnessFactor":0.5
			}
		}
	],
	"meshes":[
		{
			"name":"Mesh_0",
			"primitives":[
				{
					"attributes":{
						"POSITION":0,
						"NORMAL":1
					},
					"indices":2,
					"material":0
				}
			]
		}
	],
	"accessors":[
		{
			"bufferView":0,
			"componentType":5126,
			"count":1056635,
			"max":[
				1639.569580078125,
				109.38473510742188,
				544.8218994140625
			],
			"min":[
				0,
				3.0517578125e-05,
				0
			],
			"type":"VEC3"
		},
		{
			"bufferView":1,
			"componentType":5126,
			"count":1056635,
			"type":"VEC3"
		},
		{
			"bufferView":2,
			"componentType":5125,
			"count":6012768,
			"type":"SCALAR"
		}
	],
	"bufferViews":[
		{
			"buffer":0,
			"byteLength":12679620,
			"byteOffset":0,
			"target":34962
		},
		{
			"buffer":0,
			"byteLength":12679620,
			"byteOffset":12679620,
			"target":34962
		},
		{
			"buffer":0,
			"byteLength":24051072,
			"byteOffset":25359240,
			"target":34963
		}
	],
	"buffers":[
		{
			"byteLength":49410312,
			"uri":"untitled.bin"
		}
	]
}
