{
	"asset":{
		"generator":"Khronos glTF Blender I/O v3.6.28",
		"version":"2.0"
	},
	"scene":0,
	"scenes":[
		{
			"name":"Scene",
			"nodes":[
				0
			]
		}
	],
	"nodes":[
		{
			"mesh":0,
			"name":"entity_2",
			"rotation":[
				-0.5000000596046448,
				0.5,
				0.5000000596046448,
				0.5
			]
		}
	],
	"materials":[
		{
			"name":"entity_3",
			"pbrMetallicRoughness":{
				"baseColorFactor":[
					0.18447498977184296,
					0.18447498977184296,
					0.18447498977184296,
					1
				],
				"metallicFactor":0.5,
				"roughnessFactor":0.5
			}
		}
	],
	"meshes":[
		{
			"name":"Mesh_0",
			"primitives":[
				{
					"attributes":{
						"POSITION":0,
						"NORMAL":1
					},
					"indices":2,
					"material":0
				}
			]
		}
	],
	"accessors":[
		{
			"bufferView":0,
			"componentType":5126,
			"count":3674100,
			"max":[
				46.18355941772461,
				27.96582794189453,
				67.1282958984375
			],
			"min":[
				-49.40272903442383,
				-35.850067138671875,
				-62.8717041015625
			],
			"type":"VEC3"
		},
		{
			"bufferView":1,
			"componentType":5126,
			"count":3674100,
			"type":"VEC3"
		},
		{
			"bufferView":2,
			"componentType":5125,
			"count":3674100,
			"type":"SCALAR"
		}
	],
	"bufferViews":[
		{
			"buffer":0,
			"byteLength":44089200,
			"byteOffset":0,
			"target":34962
		},
		{
			"buffer":0,
			"byteLength":44089200,
			"byteOffset":44089200,
			"target":34962
		},
		{
			"buffer":0,
			"byteLength":14696400,
			"byteOffset":88178400,
			"target":34963
		}
	],
	"buffers":[
		{
			"byteLength":102874800,
			"uri":"prueba4.bin"
		}
	]
}
